<mxfile host="app.diagrams.net" modified="2020-04-03T01:49:30.525Z" agent="5.0 (Windows NT 10.0; Win64; x64) AppleWebKit/537.36 (KHTML, like Gecko) Chrome/80.0.3987.162 Safari/537.36" etag="yPgtcaHFs0SPu2l-3v5I" version="12.9.6" type="github">
  <diagram id="1Mv5UenHe6NZsJKYI-XA" name="Page-1">
    <mxGraphModel dx="1304" dy="529" grid="1" gridSize="10" guides="1" tooltips="1" connect="1" arrows="1" fold="1" page="1" pageScale="1" pageWidth="850" pageHeight="1100" math="0" shadow="0">
      <root>
        <mxCell id="0" />
        <mxCell id="1" parent="0" />
        <mxCell id="U0UpkO36y2_0f6v4TCSK-4" style="edgeStyle=orthogonalEdgeStyle;rounded=0;orthogonalLoop=1;jettySize=auto;html=1;exitX=0.5;exitY=1;exitDx=0;exitDy=0;entryX=0.5;entryY=0;entryDx=0;entryDy=0;" edge="1" parent="1" source="U0UpkO36y2_0f6v4TCSK-2" target="U0UpkO36y2_0f6v4TCSK-3">
          <mxGeometry relative="1" as="geometry" />
        </mxCell>
        <mxCell id="U0UpkO36y2_0f6v4TCSK-2" value="&lt;b&gt;START&lt;/b&gt;" style="ellipse;whiteSpace=wrap;html=1;" vertex="1" parent="1">
          <mxGeometry x="58.75" y="10" width="75" height="30" as="geometry" />
        </mxCell>
        <mxCell id="U0UpkO36y2_0f6v4TCSK-6" value="" style="edgeStyle=orthogonalEdgeStyle;rounded=0;orthogonalLoop=1;jettySize=auto;html=1;" edge="1" parent="1" source="U0UpkO36y2_0f6v4TCSK-3" target="U0UpkO36y2_0f6v4TCSK-5">
          <mxGeometry relative="1" as="geometry" />
        </mxCell>
        <mxCell id="U0UpkO36y2_0f6v4TCSK-3" value="WAFER LIST" style="shape=parallelogram;perimeter=parallelogramPerimeter;whiteSpace=wrap;html=1;" vertex="1" parent="1">
          <mxGeometry x="36.25" y="60" width="120" height="30" as="geometry" />
        </mxCell>
        <mxCell id="U0UpkO36y2_0f6v4TCSK-13" value="" style="edgeStyle=orthogonalEdgeStyle;rounded=0;orthogonalLoop=1;jettySize=auto;html=1;" edge="1" parent="1" source="U0UpkO36y2_0f6v4TCSK-5" target="U0UpkO36y2_0f6v4TCSK-7">
          <mxGeometry relative="1" as="geometry" />
        </mxCell>
        <mxCell id="U0UpkO36y2_0f6v4TCSK-5" value="Obtain&lt;br&gt;Aggregate&lt;br&gt;Compute&lt;br&gt;&lt;br&gt;SA DATA" style="rounded=0;whiteSpace=wrap;html=1;" vertex="1" parent="1">
          <mxGeometry x="20" y="110" width="152.5" height="90" as="geometry" />
        </mxCell>
        <mxCell id="U0UpkO36y2_0f6v4TCSK-10" style="edgeStyle=orthogonalEdgeStyle;rounded=0;orthogonalLoop=1;jettySize=auto;html=1;exitX=0.5;exitY=1;exitDx=0;exitDy=0;entryX=0.5;entryY=0;entryDx=0;entryDy=0;" edge="1" parent="1" source="U0UpkO36y2_0f6v4TCSK-7" target="U0UpkO36y2_0f6v4TCSK-9">
          <mxGeometry relative="1" as="geometry" />
        </mxCell>
        <mxCell id="U0UpkO36y2_0f6v4TCSK-16" value="" style="edgeStyle=orthogonalEdgeStyle;rounded=0;orthogonalLoop=1;jettySize=auto;html=1;" edge="1" parent="1" source="U0UpkO36y2_0f6v4TCSK-7" target="U0UpkO36y2_0f6v4TCSK-15">
          <mxGeometry relative="1" as="geometry" />
        </mxCell>
        <mxCell id="U0UpkO36y2_0f6v4TCSK-7" value="With&lt;br&gt;Adjustments? (RFW, SELG, etc)" style="rhombus;whiteSpace=wrap;html=1;" vertex="1" parent="1">
          <mxGeometry x="42.18000000000001" y="230" width="108.13" height="80" as="geometry" />
        </mxCell>
        <mxCell id="U0UpkO36y2_0f6v4TCSK-9" value="Calculate&lt;br&gt;MB WAL" style="rounded=0;whiteSpace=wrap;html=1;" vertex="1" parent="1">
          <mxGeometry x="53.900000000000006" y="340" width="84.72" height="40" as="geometry" />
        </mxCell>
        <mxCell id="U0UpkO36y2_0f6v4TCSK-11" value="&lt;b&gt;YES&lt;/b&gt;" style="text;html=1;align=center;verticalAlign=middle;resizable=0;points=[];autosize=1;" vertex="1" parent="1">
          <mxGeometry x="138.62" y="249" width="40" height="20" as="geometry" />
        </mxCell>
        <mxCell id="U0UpkO36y2_0f6v4TCSK-12" value="&lt;b&gt;NO&lt;/b&gt;" style="text;html=1;align=center;verticalAlign=middle;resizable=0;points=[];autosize=1;" vertex="1" parent="1">
          <mxGeometry x="58.75" y="320" width="30" height="20" as="geometry" />
        </mxCell>
        <mxCell id="U0UpkO36y2_0f6v4TCSK-17" style="edgeStyle=orthogonalEdgeStyle;rounded=0;orthogonalLoop=1;jettySize=auto;html=1;exitX=0.5;exitY=1;exitDx=0;exitDy=0;entryX=1;entryY=0.5;entryDx=0;entryDy=0;" edge="1" parent="1" source="U0UpkO36y2_0f6v4TCSK-15" target="U0UpkO36y2_0f6v4TCSK-9">
          <mxGeometry relative="1" as="geometry" />
        </mxCell>
        <mxCell id="U0UpkO36y2_0f6v4TCSK-15" value="Convert PARAMETERS to &quot;Normal State&quot;" style="rounded=0;whiteSpace=wrap;html=1;" vertex="1" parent="1">
          <mxGeometry x="200" y="245" width="110" height="50" as="geometry" />
        </mxCell>
        <mxCell id="U0UpkO36y2_0f6v4TCSK-19" value="Obtain&lt;br&gt;Aggregate&lt;br&gt;Compute&lt;br&gt;&lt;br&gt;SA DATA" style="rounded=0;whiteSpace=wrap;html=1;" vertex="1" parent="1">
          <mxGeometry x="560" y="10" width="152.5" height="90" as="geometry" />
        </mxCell>
        <mxCell id="U0UpkO36y2_0f6v4TCSK-41" style="edgeStyle=orthogonalEdgeStyle;rounded=0;orthogonalLoop=1;jettySize=auto;html=1;exitX=0.5;exitY=0;exitDx=0;exitDy=0;entryX=0;entryY=0.5;entryDx=0;entryDy=0;" edge="1" parent="1" source="U0UpkO36y2_0f6v4TCSK-23" target="U0UpkO36y2_0f6v4TCSK-25">
          <mxGeometry relative="1" as="geometry" />
        </mxCell>
        <mxCell id="U0UpkO36y2_0f6v4TCSK-23" value="&lt;b&gt;START&lt;/b&gt;" style="ellipse;whiteSpace=wrap;html=1;" vertex="1" parent="1">
          <mxGeometry x="42.18" y="550" width="77.82" height="40" as="geometry" />
        </mxCell>
        <mxCell id="U0UpkO36y2_0f6v4TCSK-39" value="" style="edgeStyle=none;rounded=0;orthogonalLoop=1;jettySize=auto;html=1;" edge="1" parent="1" source="U0UpkO36y2_0f6v4TCSK-25" target="U0UpkO36y2_0f6v4TCSK-27">
          <mxGeometry relative="1" as="geometry" />
        </mxCell>
        <mxCell id="U0UpkO36y2_0f6v4TCSK-25" value="&lt;b&gt;EXTENDER BOND&lt;/b&gt;" style="rounded=0;whiteSpace=wrap;html=1;fillColor=#5CFF5C;" vertex="1" parent="1">
          <mxGeometry x="160" y="505" width="120" height="30" as="geometry" />
        </mxCell>
        <mxCell id="U0UpkO36y2_0f6v4TCSK-44" style="edgeStyle=orthogonalEdgeStyle;rounded=0;orthogonalLoop=1;jettySize=auto;html=1;exitX=0;exitY=0.5;exitDx=0;exitDy=0;entryX=1;entryY=0.5;entryDx=0;entryDy=0;" edge="1" parent="1" source="U0UpkO36y2_0f6v4TCSK-26" target="U0UpkO36y2_0f6v4TCSK-29">
          <mxGeometry relative="1" as="geometry" />
        </mxCell>
        <mxCell id="U0UpkO36y2_0f6v4TCSK-26" value="&lt;b&gt;LAPPING (BCL)&lt;/b&gt;" style="rounded=0;whiteSpace=wrap;html=1;fillColor=#5CFF5C;" vertex="1" parent="1">
          <mxGeometry x="480" y="610" width="120" height="30" as="geometry" />
        </mxCell>
        <mxCell id="U0UpkO36y2_0f6v4TCSK-48" value="" style="edgeStyle=orthogonalEdgeStyle;rounded=0;orthogonalLoop=1;jettySize=auto;html=1;" edge="1" parent="1" source="U0UpkO36y2_0f6v4TCSK-27" target="U0UpkO36y2_0f6v4TCSK-28">
          <mxGeometry relative="1" as="geometry" />
        </mxCell>
        <mxCell id="U0UpkO36y2_0f6v4TCSK-27" value="&lt;b&gt;DEBURR (DBM)&lt;/b&gt;" style="rounded=0;whiteSpace=wrap;html=1;fillColor=#FF9999;" vertex="1" parent="1">
          <mxGeometry x="320" y="505" width="120" height="30" as="geometry" />
        </mxCell>
        <mxCell id="U0UpkO36y2_0f6v4TCSK-49" value="" style="edgeStyle=orthogonalEdgeStyle;rounded=0;orthogonalLoop=1;jettySize=auto;html=1;" edge="1" parent="1" source="U0UpkO36y2_0f6v4TCSK-28" target="U0UpkO36y2_0f6v4TCSK-26">
          <mxGeometry relative="1" as="geometry" />
        </mxCell>
        <mxCell id="U0UpkO36y2_0f6v4TCSK-28" value="&lt;b&gt;WIRE BOND (HKWB)&lt;/b&gt;" style="rounded=0;whiteSpace=wrap;html=1;fillColor=#FF9999;" vertex="1" parent="1">
          <mxGeometry x="480" y="500" width="120" height="40" as="geometry" />
        </mxCell>
        <mxCell id="U0UpkO36y2_0f6v4TCSK-50" value="" style="edgeStyle=orthogonalEdgeStyle;rounded=0;orthogonalLoop=1;jettySize=auto;html=1;" edge="1" parent="1" source="U0UpkO36y2_0f6v4TCSK-29" target="U0UpkO36y2_0f6v4TCSK-27">
          <mxGeometry relative="1" as="geometry" />
        </mxCell>
        <mxCell id="U0UpkO36y2_0f6v4TCSK-29" value="&lt;b&gt;ROW SLICE (ADS)&lt;/b&gt;" style="rounded=0;whiteSpace=wrap;html=1;fillColor=#5CFF5C;" vertex="1" parent="1">
          <mxGeometry x="320" y="610" width="120" height="30" as="geometry" />
        </mxCell>
      </root>
    </mxGraphModel>
  </diagram>
</mxfile>
